<?xml version="1.0" encoding="UTF-8" standalone="no"?>
<!-- Created with Inkscape (http://www.inkscape.org/) -->

<svg
   xmlns:dc="http://purl.org/dc/elements/1.1/"
   xmlns:cc="http://creativecommons.org/ns#"
   xmlns:rdf="http://www.w3.org/1999/02/22-rdf-syntax-ns#"
   xmlns:svg="http://www.w3.org/2000/svg"
   xmlns="http://www.w3.org/2000/svg"
   version="1.1"
   width="305.77808"
   height="202.77522"
   id="svg9452">
  <defs
     id="defs9454" />
  <metadata
     id="metadata9457">
    <rdf:RDF>
      <cc:Work
         rdf:about="">
        <dc:format>image/svg+xml</dc:format>
        <dc:type
           rdf:resource="http://purl.org/dc/dcmitype/StillImage" />
        <dc:title></dc:title>
      </cc:Work>
    </rdf:RDF>
  </metadata>
  <g
     transform="translate(-209.96812,-210.97458)"
     id="layer1">
    <g
       transform="translate(232.39493,-1067.3139)"
       id="g9424">
      <path
         d="m 14.7764,1353.8091 c -2.516396,0 -4.561141,1.9999 -4.632872,4.4992 l -0.04448,0 c 0,12.5114 7.225198,23.892 18.531459,29.2671 l 0,65.8402 c 0.117554,2.4573 2.146704,4.41 4.632871,4.41 2.48617,4e-4 4.515319,-1.9527 4.632859,-4.41 l 0.04448,0 0,-30.2471 9.265728,0 0,29.5344 c -0.01742,0.163 -0.04448,0.3224 -0.04448,0.4898 0,2.5621 2.071133,4.6329 4.632872,4.6329 2.484879,4e-4 4.51339,-1.9547 4.632858,-4.41 l 0.04448,0 0,-65.8846 c 11.25221,-5.3037 18.462465,-16.6041 18.531459,-29.0444 9.3e-5,-0.015 -4.7e-5,-0.029 0,-0.044 0,-0.043 0.0013,-0.09 0,-0.1329 -0.07091,-2.4999 -2.160513,-4.4993 -4.677407,-4.4993 -2.561725,0 -4.632856,2.071 -4.632856,4.6328 0,0.076 0.04089,0.1452 0.04448,0.2229 -0.09532,5.9449 -2.610442,11.8312 -6.815653,16.0368 -4.289147,4.2888 -10.283,6.7712 -16.348679,6.7712 -6.065551,0 -12.104188,-2.4825 -16.393213,-6.7712 -4.214494,-4.2146 -6.686029,-15.8525 -6.771102,-16.2597 0,-2.5618 -2.071132,-4.6328 -4.632871,-4.6328 z m 27.797189,4.4992 c -5.143631,0 -9.26573,4.1222 -9.26573,9.2657 0,5.1433 4.122099,9.2658 9.26573,9.2658 5.143397,0 9.265728,-4.1225 9.265728,-9.2658 0,-5.1435 -4.122331,-9.2657 -9.265728,-9.2657 z"
         id="path8112"
         style="color:#000000;fill:#566f3f;fill-opacity:1;fill-rule:nonzero;stroke:none;stroke-width:1.466784;marker:none;visibility:visible;display:inline;overflow:visible;enable-background:accumulate" />
      <path
         d="m 73.416653,1353.8091 c -2.516397,0 -4.561141,1.9999 -4.632873,4.4992 l -0.04448,0 c 0,12.5114 7.225197,23.8921 18.53146,29.2671 l 0,65.8402 c 0.117492,2.4573 2.146693,4.4102 4.632877,4.4102 2.486154,2e-4 4.515308,-1.9529 4.632847,-4.4102 l 0.04446,0 0,-30.2471 9.265716,0 0,29.5345 c -0.0174,0.1629 -0.0445,0.3223 -0.0445,0.4899 0,2.5619 2.07114,4.6329 4.63288,4.6329 2.48487,2e-4 4.51338,-1.9549 4.63286,-4.4102 l 0.0445,0 0,-65.8846 c 11.25222,-5.3035 18.46247,-16.6041 18.53146,-29.0444 1e-4,-0.015 -4e-5,-0.029 0,-0.044 0,-0.043 0.001,-0.09 0,-0.1329 -0.0709,-2.4998 -2.16052,-4.4993 -4.67741,-4.4993 -2.56172,0 -4.63285,2.0712 -4.63285,4.6328 0,0.076 0.0408,0.1452 0.0445,0.2229 -0.0953,5.9449 -2.61044,11.8313 -6.81565,16.0368 -4.28914,4.2888 -10.28299,6.7713 -16.34867,6.7713 -6.06555,0 -12.104198,-2.4825 -16.393215,-6.7713 -4.214495,-4.2146 -6.686031,-15.8524 -6.771103,-16.2597 0,-2.5616 -2.071134,-4.6328 -4.632872,-4.6328 z m 27.797187,4.4992 c -5.143641,0 -9.265738,4.1223 -9.265738,9.2657 0,5.1433 4.122097,9.2659 9.265738,9.2659 5.1434,0 9.26574,-4.1226 9.26574,-9.2659 0,-5.1434 -4.12234,-9.2657 -9.26574,-9.2657 z"
         id="path8114"
         style="color:#000000;fill:#ee393a;fill-opacity:1;fill-rule:nonzero;stroke:none;stroke-width:1.466784;marker:none;visibility:visible;display:inline;overflow:visible;enable-background:accumulate" />
      <path
         d="m 132.63883,1353.8091 c -2.5164,0 -4.56114,1.9999 -4.63288,4.4992 l -0.0445,0 c 0,12.5112 7.22522,23.892 18.53148,29.2671 l 0,65.8402 c 0.11749,2.4573 2.14669,4.41 4.63286,4.41 2.48617,4e-4 4.51533,-1.9527 4.63287,-4.41 l 0.0445,0 0,-30.2471 9.2657,0 0,29.5344 c -0.0174,0.163 -0.0445,0.3224 -0.0445,0.4898 0,2.5621 2.07114,4.6329 4.63288,4.6329 2.48487,4e-4 4.51338,-1.9547 4.63286,-4.41 l 0.0445,0 0,-65.8846 c 11.25222,-5.3037 18.46247,-16.6041 18.53147,-29.0444 9e-5,-0.015 -5e-5,-0.029 0,-0.044 0,-0.043 0.001,-0.09 0,-0.1329 -0.0711,-2.4999 -2.16052,-4.4993 -4.67742,-4.4993 -2.56172,0 -4.63284,2.071 -4.63284,4.6328 0,0.078 0.0409,0.1452 0.0445,0.2229 -0.0953,5.9448 -2.61046,11.8312 -6.81566,16.0368 -4.28914,4.2888 -10.28299,6.7712 -16.34867,6.7712 -6.06555,0 -12.1042,-2.4825 -16.39322,-6.7712 -4.2145,-4.2146 -6.68603,-15.8525 -6.77112,-16.2597 0,-2.5618 -2.07112,-4.6328 -4.63285,-4.6328 z m 27.79719,4.4992 c -5.14364,0 -9.26574,4.1222 -9.26574,9.2657 0,5.1433 4.1221,9.2658 9.26574,9.2658 5.14338,0 9.26571,-4.1225 9.26571,-9.2658 0,-5.1435 -4.12233,-9.2657 -9.26571,-9.2657 z"
         id="path8116"
         style="color:#000000;fill:#ffcd35;fill-opacity:1;fill-rule:nonzero;stroke:none;stroke-width:1.466784;marker:none;visibility:visible;display:inline;overflow:visible;enable-background:accumulate" />
      <path
         d="m 190.95335,1353.8091 c -2.51639,0 -4.56114,1.9999 -4.63288,4.4992 l -0.0445,0 c 0,12.5114 7.22519,23.892 18.53145,29.2671 l 0,65.8402 c 0.11765,2.4573 2.14671,4.41 4.63288,4.41 2.48617,4e-4 4.51532,-1.9527 4.63286,-4.41 l 0.0445,0 0,-30.2471 9.26574,0 0,29.5344 c -0.0174,0.163 -0.0445,0.3224 -0.0445,0.4898 0,2.5621 2.07112,4.6329 4.63285,4.6329 2.48488,4e-4 4.51339,-1.9547 4.63286,-4.41 l 0.0445,0 0,-65.8846 c 11.2522,-5.3035 18.46248,-16.6041 18.53146,-29.0444 9e-5,-0.015 -4e-5,-0.029 0,-0.044 0,-0.043 0.001,-0.09 0,-0.1329 -0.071,-2.4999 -2.1605,-4.4993 -4.6774,-4.4993 -2.56172,0 -4.63286,2.071 -4.63286,4.6328 0,0.078 0.041,0.1452 0.0445,0.2229 -0.0953,5.9449 -2.61043,11.8313 -6.81564,16.0368 -4.28916,4.2888 -10.28301,6.7712 -16.34868,6.7712 -6.06556,0 -12.10419,-2.4825 -16.39322,-6.7712 -4.21449,-4.2146 -6.68604,-15.8525 -6.77109,-16.2597 0,-2.5618 -2.07114,-4.6328 -4.63288,-4.6328 z m 27.79719,4.4992 c -5.14363,0 -9.26573,4.1223 -9.26573,9.2657 0,5.1433 4.1221,9.2658 9.26573,9.2658 5.14341,0 9.26574,-4.1225 9.26574,-9.2658 0,-5.1434 -4.12233,-9.2657 -9.26574,-9.2657 z"
         id="path8118"
         style="color:#000000;fill:#73c3bc;fill-opacity:1;fill-rule:nonzero;stroke:none;stroke-width:1.466784;marker:none;visibility:visible;display:inline;overflow:visible;enable-background:accumulate" />
      <text
         x="130.60373"
         y="1328.3127"
         id="text8106"
         xml:space="preserve"
         style="font-size:7.62273073px;font-style:normal;font-weight:normal;text-align:center;line-height:87.99999952%;letter-spacing:0px;word-spacing:0px;text-anchor:middle;fill:#347091;fill-opacity:0.99607843;stroke:none;font-family:Sans"><tspan
           x="130.60373"
           y="1328.3127"
           id="tspan8108"
           style="font-size:35.57274628px;font-style:normal;font-variant:normal;font-weight:bold;font-stretch:normal;text-align:center;line-height:87.99999952%;text-anchor:middle;fill:#347091;fill-opacity:0.99607843;font-family:Coco Gothic;-inkscape-font-specification:Coco Gothic Bold">GRUPO</tspan><tspan
           x="130.60373"
           y="1352.5822"
           id="tspan8110"
           style="font-size:24.4458046px;font-style:normal;font-variant:normal;font-weight:normal;font-stretch:normal;text-align:center;line-height:87.99999952%;text-anchor:middle;fill:#347091;fill-opacity:0.99607843;font-family:Coco Gothic;-inkscape-font-specification:Coco Gothic">TRANSPORTE LIVRE</tspan></text>
    </g>
  </g>
</svg>
