<?xml version="1.0" encoding="UTF-8" standalone="no"?>
<!-- Created with Inkscape (http://www.inkscape.org/) -->

<svg
   xmlns:dc="http://purl.org/dc/elements/1.1/"
   xmlns:cc="http://creativecommons.org/ns#"
   xmlns:rdf="http://www.w3.org/1999/02/22-rdf-syntax-ns#"
   xmlns:svg="http://www.w3.org/2000/svg"
   xmlns="http://www.w3.org/2000/svg"
   version="1.1"
   width="305.77808"
   height="202.77522"
   id="svg9452">
  <defs
     id="defs9454" />
  <metadata
     id="metadata9457">
    <rdf:RDF>
      <cc:Work
         rdf:about="">
        <dc:format>image/svg+xml</dc:format>
        <dc:type
           rdf:resource="http://purl.org/dc/dcmitype/StillImage" />
        <dc:title></dc:title>
      </cc:Work>
    </rdf:RDF>
  </metadata>
  <path
     d="m 37.20321,75.5206 c -2.516396,0 -4.561141,1.9999 -4.632872,4.4992 l -0.04448,0 c 0,12.5114 7.225198,23.892 18.531459,29.2671 l 0,65.8402 c 0.117554,2.4573 2.146704,4.41 4.632871,4.41 2.48617,4e-4 4.515319,-1.9527 4.632859,-4.41 l 0.04448,0 0,-30.2471 9.265728,0 0,29.5344 c -0.01742,0.163 -0.04448,0.3224 -0.04448,0.4898 0,2.5621 2.071133,4.6329 4.632872,4.6329 2.484879,4e-4 4.51339,-1.9547 4.632858,-4.41 l 0.04448,0 0,-65.8846 c 11.25221,-5.3037 18.462465,-16.6041 18.531459,-29.0444 9.3e-5,-0.015 -4.7e-5,-0.029 0,-0.044 0,-0.043 0.0013,-0.09 0,-0.1329 -0.07091,-2.4999 -2.160513,-4.4993 -4.677407,-4.4993 -2.561725,0 -4.632856,2.071 -4.632856,4.6328 0,0.076 0.04089,0.1452 0.04448,0.2229 -0.09532,5.9449 -2.610442,11.8312 -6.815653,16.0368 -4.289147,4.2888 -10.283,6.7712 -16.348679,6.7712 -6.065551,0 -12.104188,-2.4825 -16.393213,-6.7712 -4.214494,-4.2146 -6.686029,-15.8525 -6.771102,-16.2597 0,-2.5618 -2.071132,-4.6328 -4.632871,-4.6328 z m 27.797189,4.4992 c -5.143631,0 -9.26573,4.1222 -9.26573,9.2657 0,5.1433 4.122099,9.2658 9.26573,9.2658 5.143397,0 9.265728,-4.1225 9.265728,-9.2658 0,-5.1435 -4.122331,-9.2657 -9.265728,-9.2657 z"
     id="path8112"
     style="color:#000000;fill:#566f3f;fill-opacity:1;fill-rule:nonzero;stroke:none;stroke-width:1.466784;marker:none;visibility:visible;display:inline;overflow:visible;enable-background:accumulate" />
  <path
     d="m 95.843463,75.5206 c -2.516397,0 -4.561141,1.9999 -4.632873,4.4992 l -0.04448,0 c 0,12.5114 7.225197,23.8921 18.53146,29.2671 l 0,65.8402 c 0.11749,2.4573 2.14669,4.4102 4.63288,4.4102 2.48615,2e-4 4.5153,-1.9529 4.63284,-4.4102 l 0.0445,0 0,-30.2471 9.26572,0 0,29.5345 c -0.0174,0.1629 -0.0445,0.3223 -0.0445,0.4899 0,2.5619 2.07114,4.6329 4.63288,4.6329 2.48487,2e-4 4.51338,-1.9549 4.63286,-4.4102 l 0.0445,0 0,-65.8846 c 11.25222,-5.3035 18.46247,-16.6041 18.53146,-29.0444 1e-4,-0.015 -4e-5,-0.029 0,-0.044 0,-0.043 0.001,-0.09 0,-0.1329 -0.0709,-2.4998 -2.16052,-4.4993 -4.67741,-4.4993 -2.56172,0 -4.63285,2.0712 -4.63285,4.6328 0,0.076 0.0408,0.1452 0.0445,0.2229 -0.0953,5.9449 -2.61044,11.8313 -6.81565,16.0368 -4.28914,4.2888 -10.28299,6.7713 -16.34867,6.7713 -6.06555,0 -12.1042,-2.4825 -16.39322,-6.7713 -4.21449,-4.2146 -6.68603,-15.8524 -6.7711,-16.2597 0,-2.5616 -2.071132,-4.6328 -4.63287,-4.6328 z m 27.797187,4.4992 c -5.14364,0 -9.26574,4.1223 -9.26574,9.2657 0,5.1433 4.1221,9.2659 9.26574,9.2659 5.1434,0 9.26574,-4.1226 9.26574,-9.2659 0,-5.1434 -4.12234,-9.2657 -9.26574,-9.2657 z"
     id="path8114"
     style="color:#000000;fill:#ee393a;fill-opacity:1;fill-rule:nonzero;stroke:none;stroke-width:1.466784;marker:none;visibility:visible;display:inline;overflow:visible;enable-background:accumulate" />
  <path
     d="m 155.06564,75.5206 c -2.5164,0 -4.56114,1.9999 -4.63288,4.4992 l -0.0445,0 c 0,12.5112 7.22522,23.892 18.53148,29.2671 l 0,65.8402 c 0.11749,2.4573 2.14669,4.41 4.63286,4.41 2.48617,4e-4 4.51533,-1.9527 4.63287,-4.41 l 0.0445,0 0,-30.2471 9.2657,0 0,29.5344 c -0.0174,0.163 -0.0445,0.3224 -0.0445,0.4898 0,2.5621 2.07114,4.6329 4.63288,4.6329 2.48487,4e-4 4.51338,-1.9547 4.63286,-4.41 l 0.0445,0 0,-65.8846 c 11.25222,-5.3037 18.46247,-16.6041 18.53147,-29.0444 9e-5,-0.015 -5e-5,-0.029 0,-0.044 0,-0.043 0.001,-0.09 0,-0.1329 -0.0711,-2.4999 -2.16052,-4.4993 -4.67742,-4.4993 -2.56172,0 -4.63284,2.071 -4.63284,4.6328 0,0.078 0.0409,0.1452 0.0445,0.2229 -0.0953,5.9448 -2.61046,11.8312 -6.81566,16.0368 -4.28914,4.2888 -10.28299,6.7712 -16.34867,6.7712 -6.06555,0 -12.1042,-2.4825 -16.39322,-6.7712 -4.2145,-4.2146 -6.68603,-15.8525 -6.77112,-16.2597 0,-2.5618 -2.07112,-4.6328 -4.63285,-4.6328 z m 27.79719,4.4992 c -5.14364,0 -9.26574,4.1222 -9.26574,9.2657 0,5.1433 4.1221,9.2658 9.26574,9.2658 5.14338,0 9.26571,-4.1225 9.26571,-9.2658 0,-5.1435 -4.12233,-9.2657 -9.26571,-9.2657 z"
     id="path8116"
     style="color:#000000;fill:#ffcd35;fill-opacity:1;fill-rule:nonzero;stroke:none;stroke-width:1.466784;marker:none;visibility:visible;display:inline;overflow:visible;enable-background:accumulate" />
  <path
     d="m 213.38016,75.5206 c -2.51639,0 -4.56114,1.9999 -4.63288,4.4992 l -0.0445,0 c 0,12.5114 7.22519,23.892 18.53145,29.2671 l 0,65.8402 c 0.11765,2.4573 2.14671,4.41 4.63288,4.41 2.48617,4e-4 4.51532,-1.9527 4.63286,-4.41 l 0.0445,0 0,-30.2471 9.26574,0 0,29.5344 c -0.0174,0.163 -0.0445,0.3224 -0.0445,0.4898 0,2.5621 2.07112,4.6329 4.63285,4.6329 2.48488,4e-4 4.51339,-1.9547 4.63286,-4.41 l 0.0445,0 0,-65.8846 c 11.2522,-5.3035 18.46248,-16.6041 18.53146,-29.0444 9e-5,-0.015 -4e-5,-0.029 0,-0.044 0,-0.043 0.001,-0.09 0,-0.1329 -0.071,-2.4999 -2.1605,-4.4993 -4.6774,-4.4993 -2.56172,0 -4.63286,2.071 -4.63286,4.6328 0,0.078 0.041,0.1452 0.0445,0.2229 -0.0953,5.9449 -2.61043,11.8313 -6.81564,16.0368 -4.28916,4.2888 -10.28301,6.7712 -16.34868,6.7712 -6.06556,0 -12.10419,-2.4825 -16.39322,-6.7712 -4.21449,-4.2146 -6.68604,-15.8525 -6.77109,-16.2597 0,-2.5618 -2.07114,-4.6328 -4.63288,-4.6328 z m 27.79719,4.4992 c -5.14363,0 -9.26573,4.1223 -9.26573,9.2657 0,5.1433 4.1221,9.2658 9.26573,9.2658 5.14341,0 9.26574,-4.1225 9.26574,-9.2658 0,-5.1434 -4.12233,-9.2657 -9.26574,-9.2657 z"
     id="path8118"
     style="color:#000000;fill:#73c3bc;fill-opacity:1;fill-rule:nonzero;stroke:none;stroke-width:1.466784;marker:none;visibility:visible;display:inline;overflow:visible;enable-background:accumulate" />
  <g
     id="text8106"
     style="font-size:7.62273073px;font-style:normal;font-weight:normal;text-align:center;line-height:87.99999952%;letter-spacing:0px;word-spacing:0px;text-anchor:middle;fill:#347091;fill-opacity:0.99607843;stroke:none;font-family:Sans">
    <path
       d="m 103.64111,45.577649 c 0.68772,5e-6 1.38732,-0.09486 2.09879,-0.284582 0.73515,-0.189716 1.38732,-0.498013 1.9565,-0.924891 l 0,-5.44263 c -2e-5,-0.474292 0.23713,-0.711444 0.71146,-0.711455 l 3.16597,0 c 0.16598,1.1e-5 0.32013,0.04744 0.46245,0.142291 0.14226,0.09487 0.21341,0.284593 0.21343,0.569164 l 0,8.075013 c -2e-5,0.3083 -0.1186,0.569166 -0.35572,0.7826 -1.06721,0.735172 -2.31225,1.351766 -3.73514,1.849783 -1.39921,0.498019 -2.90513,0.747028 -4.51774,0.747028 -1.87351,0 -3.64029,-0.355728 -5.30034,-1.067183 -1.660069,-0.711453 -3.118551,-1.683774 -4.375447,-2.916965 -1.233193,-1.233183 -2.205514,-2.679807 -2.916966,-4.339875 -0.711456,-1.660052 -1.067184,-3.42683 -1.067182,-5.300339 -2e-6,-1.873483 0.355726,-3.628403 1.067182,-5.264766 0.711452,-1.660042 1.671915,-3.094808 2.881393,-4.304303 1.233182,-1.233164 2.679805,-2.193627 4.339875,-2.881392 1.66005,-0.711429 3.426825,-1.067156 5.300335,-1.067183 1.61262,2.7e-5 3.05924,0.237179 4.33988,0.711455 1.2806,0.450614 2.49007,1.10278 3.62842,1.956501 0.1897,0.142315 0.29642,0.296464 0.32015,0.462446 0.0237,0.16603 -0.0237,0.320178 -0.14229,0.462446 l -2.09879,3.023683 c -0.1186,0.118596 -0.26089,0.201599 -0.42687,0.249009 -0.16603,0.04745 -0.35575,2e-5 -0.56917,-0.14229 -0.68776,-0.521714 -1.44664,-0.936728 -2.27665,-1.245047 -0.80633,-0.33199 -1.70751,-0.497996 -2.70353,-0.498018 -1.2332,2.2e-5 -2.38339,0.225316 -3.45056,0.675882 -1.043475,0.426894 -1.956508,1.03163 -2.739098,1.81421 -0.758894,0.758904 -1.36363,1.660079 -1.81421,2.703529 -0.42688,1.019768 -0.640316,2.134379 -0.64031,3.343838 -6e-6,1.209485 0.225287,2.35967 0.675882,3.450556 0.450581,1.067192 1.055317,2.00394 1.81421,2.810247 0.782591,0.806322 1.695624,1.446631 2.739106,1.920929 1.06717,0.450592 2.20549,0.664029 3.41498,0.640309"
       id="path18405"
       style="font-size:35.57274628px;font-variant:normal;font-weight:bold;font-stretch:normal;line-height:87.99999952%;fill:#347091;font-family:Coco Gothic;-inkscape-font-specification:Coco Gothic Bold" />
    <path
       d="m 117.14319,49.312787 0,-24.972067 c 0,-0.189696 0.0474,-0.355702 0.14229,-0.498019 0.11857,-0.142265 0.29644,-0.21341 0.53359,-0.213436 l 11.31214,0 c 1.20945,2.6e-5 2.32406,0.249035 3.34383,0.747027 1.04345,0.474329 1.93277,1.114638 2.66796,1.920929 0.73515,0.806338 1.30431,1.731229 1.70749,2.774674 0.42685,1.043487 0.64029,2.122526 0.64031,3.23712 -2e-5,1.494071 -0.41504,2.905122 -1.24505,4.233157 -0.80633,1.304346 -1.88537,2.347812 -3.23712,3.130401 l 4.8379,9.604642 c 0.0948,0.166006 0.0948,0.332012 0,0.498018 -0.0712,0.166006 -0.22532,0.249009 -0.46245,0.249009 l -4.58888,0 c -0.35575,0 -0.62847,-0.201578 -0.81817,-0.604736 l -4.23316,-8.537459 -5.40706,0 0,8.43074 c -1e-5,0.474304 -0.23716,0.711455 -0.71145,0.711455 l -3.80629,0 c -0.45059,0 -0.67588,-0.237151 -0.67588,-0.711455 m 10.74297,-21.094638 -5.54935,0 0,7.968295 5.54935,0 c 1.23317,1.4e-5 2.25292,-0.367571 3.05926,-1.102755 0.83001,-0.75887 1.24502,-1.719333 1.24504,-2.881392 -2e-5,-0.569146 -0.10673,-1.090879 -0.32015,-1.565201 -0.21346,-0.497999 -0.52175,-0.924871 -0.92489,-1.280619 -0.37946,-0.355707 -0.83005,-0.628431 -1.35177,-0.818173 -0.52175,-0.213415 -1.09091,-0.320133 -1.70749,-0.320155"
       id="path18407"
       style="font-size:35.57274628px;font-variant:normal;font-weight:bold;font-stretch:normal;line-height:87.99999952%;fill:#347091;font-family:Coco Gothic;-inkscape-font-specification:Coco Gothic Bold" />
    <path
       d="m 145.88152,24.411865 0,15.189563 c -1e-5,0.83004 0.13043,1.61264 0.3913,2.347801 0.28458,0.735177 0.67588,1.375486 1.1739,1.920928 0.49801,0.545455 1.09089,0.984185 1.77864,1.316192 0.71144,0.308302 1.48219,0.46245 2.31223,0.462446 0.83001,4e-6 1.5889,-0.154144 2.27665,-0.462446 0.68773,-0.332007 1.28061,-0.770737 1.77864,-1.316192 0.498,-0.545442 0.87744,-1.185751 1.13833,-1.920928 0.28456,-0.735161 0.42685,-1.517761 0.42687,-2.347801 l 0,-15.189563 c -2e-5,-0.213411 0.0711,-0.391274 0.21344,-0.533591 0.16599,-0.16598 0.36756,-0.248983 0.60474,-0.249009 l 3.5217,0 c 0.21341,2.6e-5 0.41499,0.07117 0.60473,0.213436 0.1897,0.142317 0.28456,0.332038 0.28459,0.569164 l 0,15.189563 c -3e-5,1.494064 -0.28461,2.905115 -0.85375,4.233157 -0.56919,1.304338 -1.35179,2.454523 -2.3478,3.450556 -0.97234,0.972323 -2.12253,1.743066 -3.45056,2.312228 -1.30435,0.569164 -2.70354,0.853746 -4.19758,0.853746 -1.49407,0 -2.90512,-0.284582 -4.23316,-0.853746 -1.32806,-0.569162 -2.4901,-1.339905 -3.48613,-2.312228 -0.97232,-0.996033 -1.74307,-2.146218 -2.31223,-3.450556 -0.56916,-1.328042 -0.85374,-2.739093 -0.85374,-4.233157 l 0,-15.189563 c 0,-0.189695 0.0711,-0.367559 0.21343,-0.533591 0.14229,-0.16598 0.32016,-0.248983 0.5336,-0.249009 l 3.66399,0 c 0.18971,2.6e-5 0.36758,0.08303 0.53359,0.249009 0.18971,0.142317 0.28457,0.32018 0.28458,0.533591"
       id="path18409"
       style="font-size:35.57274628px;font-variant:normal;font-weight:bold;font-stretch:normal;line-height:87.99999952%;fill:#347091;font-family:Coco Gothic;-inkscape-font-specification:Coco Gothic Bold" />
    <path
       d="m 167.79267,49.312787 0,-24.972067 c -10e-6,-0.474278 0.22529,-0.711429 0.67588,-0.711455 l 10.35167,0 c 1.20946,2.6e-5 2.31221,0.237177 3.30826,0.711455 0.99602,0.474328 1.86162,1.114637 2.59681,1.920928 0.73515,0.782623 1.30432,1.683799 1.7075,2.703529 0.40313,1.019772 0.60471,2.075095 0.60473,3.165974 -2e-5,1.090914 -0.21346,2.146238 -0.64031,3.165974 -0.40318,0.996051 -0.97234,1.885369 -1.70749,2.667956 -0.73519,0.782612 -1.61265,1.411063 -2.63238,1.885356 -1.01977,0.450598 -2.12252,0.675892 -3.30827,0.675882 l -5.79835,0 0,8.786468 c -1e-5,0.474304 -0.23716,0.711455 -0.71146,0.711455 l -3.77071,0 c -0.45059,0 -0.67589,-0.237151 -0.67588,-0.711455 m 9.99594,-21.165784 -4.83789,0 0,7.89715 4.83789,0 c 1.18574,1.4e-5 2.14621,-0.367571 2.88139,-1.102755 0.73515,-0.758869 1.10274,-1.695617 1.10276,-2.810247 -2e-5,-0.54543 -0.0949,-1.055306 -0.28459,-1.529628 -0.18973,-0.497999 -0.46246,-0.924871 -0.81817,-1.280619 -0.35574,-0.355706 -0.78261,-0.640288 -1.28062,-0.853746 -0.47432,-0.213415 -1.00791,-0.320133 -1.60077,-0.320155"
       id="path18411"
       style="font-size:35.57274628px;font-variant:normal;font-weight:bold;font-stretch:normal;line-height:87.99999952%;fill:#347091;font-family:Coco Gothic;-inkscape-font-specification:Coco Gothic Bold" />
    <path
       d="m 215.9904,36.826754 c -3e-5,1.873509 -0.35576,3.640287 -1.06718,5.300339 -0.71149,1.636352 -1.68381,3.071118 -2.91697,4.304302 -1.23321,1.209476 -2.67983,2.169939 -4.33987,2.881392 -1.66008,0.711455 -3.42686,1.067183 -5.30034,1.067183 -1.87351,0 -3.64029,-0.355728 -5.30034,-1.067183 -1.63636,-0.711453 -3.07112,-1.671916 -4.3043,-2.881392 -1.20948,-1.233184 -2.16995,-2.66795 -2.8814,-4.304302 -0.68774,-1.660052 -1.03161,-3.42683 -1.03161,-5.300339 0,-1.897199 0.34387,-3.663976 1.03161,-5.30034 0.71145,-1.660041 1.67192,-3.094807 2.8814,-4.304302 1.23318,-1.233164 2.66794,-2.205485 4.3043,-2.916965 1.66005,-0.711429 3.42683,-1.067156 5.30034,-1.067183 1.87348,2.7e-5 3.64026,0.355754 5.30034,1.067183 1.66004,0.71148 3.10666,1.683801 4.33987,2.916965 1.23316,1.209495 2.20548,2.644261 2.91697,4.304302 0.71142,1.636364 1.06715,3.403141 1.06718,5.30034 m -5.2292,0 c -2e-5,-1.209459 -0.21346,-2.335929 -0.6403,-3.379411 -0.4269,-1.04345 -1.01978,-1.944625 -1.77864,-2.703529 -0.73519,-0.78258 -1.61265,-1.399174 -2.63239,-1.849783 -1.01976,-0.450566 -2.13438,-0.67586 -3.34383,-0.675882 -1.18578,2.2e-5 -2.28853,0.225316 -3.30827,0.675882 -1.01976,0.450609 -1.90908,1.067203 -2.66795,1.849783 -0.73518,0.758904 -1.3162,1.660079 -1.74307,2.703529 -0.40316,1.043482 -0.60474,2.169952 -0.60474,3.379411 0,1.18577 0.20158,2.300381 0.60474,3.343838 0.42687,1.043476 1.00789,1.956509 1.74307,2.739101 0.75887,0.758892 1.64819,1.363628 2.66795,1.81421 1.01974,0.450593 2.12249,0.675887 3.30827,0.675882 1.20945,5e-6 2.32407,-0.225289 3.34383,-0.675882 1.01974,-0.450582 1.8972,-1.055318 2.63239,-1.81421 0.75886,-0.782592 1.35174,-1.695625 1.77864,-2.739101 0.42684,-1.043457 0.64028,-2.158068 0.6403,-3.343838"
       id="path18413"
       style="font-size:35.57274628px;font-variant:normal;font-weight:bold;font-stretch:normal;line-height:87.99999952%;fill:#347091;font-family:Coco Gothic;-inkscape-font-specification:Coco Gothic Bold" />
    <path
       d="m 31.781634,56.154868 12.565143,0 c 0.146661,1.9e-5 0.277039,0.04891 0.391133,0.146675 0.114067,0.0815 0.179255,0.211882 0.195567,0.391133 l 0,1.002278 c -1.5e-5,0.162989 -0.04891,0.301515 -0.146675,0.415579 -0.0978,0.114096 -0.244472,0.171136 -0.440025,0.17112 l -5.206956,0 0,15.474195 c -8e-6,0.146675 -0.0489,0.277052 -0.146675,0.391133 -0.09779,0.09778 -0.236317,0.146674 -0.415578,0.146674 l -1.002278,0 c -0.162979,0 -0.301505,-0.04889 -0.415579,-0.146674 -0.09779,-0.09778 -0.146681,-0.228161 -0.146675,-0.391133 l 0,-15.474195 -5.231402,0 c -0.374837,1.6e-5 -0.562254,-0.19555 -0.562254,-0.586699 l 0,-1.002278 c 0,-0.35852 0.187417,-0.537789 0.562254,-0.537808"
       id="path18415"
       style="font-size:24.4458046px;font-variant:normal;font-stretch:normal;line-height:87.99999952%;fill:#347091;font-family:Coco Gothic;-inkscape-font-specification:Coco Gothic" />
    <path
       d="m 58.875606,61.899632 c -1.3e-5,-0.488903 -0.0978,-0.953373 -0.293349,-1.39341 -0.179282,-0.440011 -0.431889,-0.822995 -0.75782,-1.148953 -0.325956,-0.342226 -0.70894,-0.61113 -1.148953,-0.806712 -0.440035,-0.211847 -0.920802,-0.317779 -1.442303,-0.317795 l -5.500306,0 0,7.333741 5.524752,0 c 0.5215,9e-6 1.002267,-0.09777 1.442303,-0.29335 0.440013,-0.195557 0.814848,-0.456312 1.124507,-0.782265 0.325931,-0.342231 0.578538,-0.733364 0.75782,-1.173399 0.195553,-0.45631 0.293336,-0.928929 0.293349,-1.417857 m -11.24507,11.856216 0,-17.01428 c -2e-6,-0.391115 0.179267,-0.586681 0.537808,-0.5867 l 7.064837,0 c 0.798553,1.9e-5 1.548223,0.154842 2.249014,0.464471 0.700768,0.293367 1.303763,0.700796 1.80899,1.22229 0.521496,0.521526 0.928926,1.132671 1.22229,1.833435 0.309632,0.700794 0.464455,1.450464 0.46447,2.249014 -1.5e-5,1.157113 -0.309661,2.200133 -0.92894,3.129063 -0.619308,0.928949 -1.426018,1.62158 -2.420135,2.077894 l 3.226846,6.624813 c 0.03258,0.130378 0.04888,0.203715 0.04889,0.220012 -1.5e-5,0.211864 -0.14669,0.317795 -0.440025,0.317795 l -1.344519,0 c -0.162985,0 -0.293363,-0.04074 -0.391133,-0.122229 -0.0815,-0.08149 -0.162985,-0.195566 -0.244458,-0.342241 l -2.957942,-6.209234 c -0.0489,6e-6 -0.138536,0.0082 -0.268904,0.02445 -0.130387,6e-6 -0.277062,6e-6 -0.440024,0 -0.146684,6e-6 -0.301508,6e-6 -0.464471,0 -0.146683,6e-6 -0.260763,6e-6 -0.342241,0 l -4.278016,0 0,6.111451 c -4e-6,0.358538 -0.179273,0.537807 -0.537807,0.537807 l -1.026724,0 c -0.358541,0 -0.53781,-0.179269 -0.537808,-0.537807"
       id="path18417"
       style="font-size:24.4458046px;font-variant:normal;font-stretch:normal;line-height:87.99999952%;fill:#347091;font-family:Coco Gothic;-inkscape-font-specification:Coco Gothic" />
    <path
       d="m 66.279628,70.333435 -1.368965,3.471304 c -0.146678,0.325945 -0.374839,0.488916 -0.684483,0.488916 l -1.05117,0 c -0.342242,0 -0.513362,-0.130377 -0.513361,-0.391132 -10e-7,-0.06519 0.0081,-0.138526 0.02445,-0.220013 0,-0.03259 0.0081,-0.06519 0.02445,-0.09778 1.173397,-2.83571 2.159377,-5.215099 2.957943,-7.138175 0.814855,-1.939357 1.48304,-3.536482 2.004556,-4.791378 0.537801,-1.271168 0.945231,-2.24085 1.22229,-2.90905 0.293342,-0.684467 0.505206,-1.181531 0.635591,-1.491194 0.13037,-0.325927 0.203707,-0.513345 0.220012,-0.562254 0.03259,-0.06517 0.04888,-0.09776 0.04889,-0.09778 0.03259,-0.08147 0.08148,-0.171103 0.146674,-0.268904 0.08148,-0.114062 0.236302,-0.171102 0.464471,-0.171121 l 0.708928,0 c 0.211854,1.9e-5 0.358529,0.05706 0.440024,0.171121 0.08148,0.0978 0.138517,0.187436 0.171121,0.268904 l 7.040392,17.01428 c 0.01628,0.0326 0.03258,0.06519 0.04889,0.09778 0.01628,0.09778 0.02443,0.162973 0.02445,0.195567 -1.7e-5,0.260755 -0.179286,0.391132 -0.537807,0.391132 l -1.05117,0 c -0.325959,0 -0.545971,-0.154823 -0.660037,-0.46447 l -1.417856,-3.49575 -8.898273,0 m 4.473582,-11.025058 -3.593533,8.947165 7.16262,0 -3.569087,-8.947165"
       id="path18419"
       style="font-size:24.4458046px;font-variant:normal;font-stretch:normal;line-height:87.99999952%;fill:#347091;font-family:Coco Gothic;-inkscape-font-specification:Coco Gothic" />
    <path
       d="m 96.440787,74.293655 -1.148953,0 c -0.179285,0 -0.334108,-0.07334 -0.46447,-0.220012 l -11.147287,-14.643037 0,14.325242 c -4e-6,0.358538 -0.187422,0.537807 -0.562254,0.537807 l -1.002278,0 c -0.35854,0 -0.537809,-0.179269 -0.537807,-0.537807 l 0,-17.038726 c -2e-6,-0.162954 0.04889,-0.293332 0.146675,-0.391133 0.09778,-0.114062 0.228158,-0.171102 0.391132,-0.171121 l 1.34452,0 c 0.195562,1.9e-5 0.350385,0.0815 0.46447,0.244458 l 10.976166,14.27635 0,-14.056337 c 0.04888,-0.309629 0.228146,-0.464452 0.537808,-0.464471 l 1.002278,0 c 0.146658,1.9e-5 0.277035,0.04891 0.391133,0.146675 0.13036,0.0978 0.195549,0.228179 0.195566,0.391133 l 0,17.063172 c -1.7e-5,0.358538 -0.195583,0.537807 -0.586699,0.537807"
       id="path18421"
       style="font-size:24.4458046px;font-variant:normal;font-stretch:normal;line-height:87.99999952%;fill:#347091;font-family:Coco Gothic;-inkscape-font-specification:Coco Gothic" />
    <path
       d="m 111.18199,59.919522 c -0.19558,-0.179254 -0.44004,-0.382969 -0.73338,-0.611145 -0.29336,-0.228145 -0.62745,-0.440009 -1.00227,-0.635591 -0.37485,-0.211848 -0.79043,-0.382968 -1.24674,-0.513362 -0.44003,-0.146658 -0.9208,-0.219996 -1.4423,-0.220012 -0.68449,1.6e-5 -1.27934,0.08965 -1.78455,0.268904 -0.48892,0.162988 -0.89635,0.383 -1.22229,0.660037 -0.30965,0.277067 -0.54596,0.594862 -0.70892,0.953386 -0.14668,0.342255 -0.22002,0.692645 -0.22002,1.05117 0,0.407443 0.12223,0.765981 0.36669,1.075615 0.26075,0.309659 0.59484,0.578563 1.00228,0.806712 0.42372,0.211875 0.89634,0.399292 1.41786,0.562253 0.5215,0.162983 1.04301,0.317806 1.56453,0.46447 0.73336,0.195577 1.47488,0.415589 2.22457,0.660037 0.76595,0.228171 1.45858,0.529669 2.07789,0.904495 0.63558,0.374844 1.14894,0.839314 1.54008,1.393411 0.40742,0.554112 0.61113,1.263039 0.61115,2.126785 -2e-5,0.880053 -0.17928,1.670467 -0.53781,2.371243 -0.35855,0.700782 -0.84747,1.295629 -1.46675,1.784544 -0.60301,0.488916 -1.32008,0.863752 -2.15123,1.124507 -0.83116,0.260755 -1.72751,0.391132 -2.68904,0.391132 -1.27118,0 -2.48532,-0.252606 -3.64242,-0.75782 -1.14081,-0.521509 -2.10234,-1.295625 -2.88461,-2.322351 -0.13037,-0.179266 -0.19556,-0.325941 -0.19556,-0.440024 0,-0.146672 0.0733,-0.277049 0.22001,-0.391133 l 0.78227,-0.660037 c 0.11407,-0.08148 0.2363,-0.122225 0.36668,-0.122229 0.11408,4e-6 0.22001,0.05704 0.3178,0.171121 0.11408,0.09779 0.18741,0.162976 0.22001,0.195566 0.35854,0.374839 0.75782,0.708932 1.19785,1.002278 0.45631,0.277055 0.90448,0.513364 1.34451,0.708928 0.45632,0.179272 0.8882,0.317798 1.29563,0.415579 0.40742,0.09779 0.75781,0.146677 1.05117,0.146675 0.50521,2e-6 1.03486,-0.06519 1.58898,-0.195567 0.55409,-0.146672 1.05931,-0.358536 1.51564,-0.635591 0.45631,-0.293346 0.83114,-0.660033 1.12451,-1.100061 0.29333,-0.44002 0.44001,-0.953381 0.44002,-1.540085 -1e-5,-0.505208 -0.13854,-0.920786 -0.41558,-1.246736 -0.27706,-0.342235 -0.64375,-0.635584 -1.10006,-0.880049 -0.45633,-0.244451 -0.98599,-0.448166 -1.58898,-0.611146 -0.58671,-0.179261 -1.19785,-0.350381 -1.83343,-0.513361 -2.02086,-0.521502 -3.52835,-1.140795 -4.52248,-1.857882 -0.99413,-0.733363 -1.49119,-1.719342 -1.49119,-2.957942 0,-0.749657 0.14667,-1.434139 0.44002,-2.053447 0.29335,-0.619278 0.71708,-1.148937 1.27119,-1.588978 0.5541,-0.456304 1.21413,-0.806694 1.98011,-1.051169 0.78226,-0.24444 1.64601,-0.366669 2.59125,-0.366687 0.97782,1.8e-5 1.97195,0.22003 2.98239,0.660036 1.01041,0.423745 1.86602,0.977849 2.56681,1.662315 0.0978,0.114096 0.19555,0.236325 0.29335,0.366687 0.11407,0.114096 0.17111,0.220028 0.17112,0.317796 -1e-5,0.130392 -0.0652,0.26077 -0.19557,0.391132 l -0.73337,0.708929 c -0.11409,0.114094 -0.22003,0.171134 -0.3178,0.17112 -0.13039,1.4e-5 -0.27706,-0.08147 -0.44002,-0.244458"
       id="path18423"
       style="font-size:24.4458046px;font-variant:normal;font-stretch:normal;line-height:87.99999952%;fill:#347091;font-family:Coco Gothic;-inkscape-font-specification:Coco Gothic" />
    <path
       d="m 116.57534,73.755848 0,-17.01428 c 0,-0.391115 0.18742,-0.586681 0.56226,-0.5867 l 6.06256,0 c 0.79855,1.9e-5 1.54007,0.154842 2.22456,0.464471 0.70077,0.293367 1.30377,0.700796 1.80899,1.22229 0.5052,0.505229 0.89634,1.108225 1.1734,1.808989 0.29334,0.684497 0.44001,1.409722 0.44003,2.175677 -2e-5,0.749683 -0.14669,1.466759 -0.44003,2.151231 -0.27706,0.684492 -0.6682,1.287488 -1.1734,1.808989 -0.48893,0.505222 -1.07562,0.912651 -1.76009,1.222291 -0.6845,0.293356 -1.41787,0.440031 -2.20013,0.440024 l -4.59581,0 0,6.307018 c 0,0.358538 -0.17927,0.537807 -0.53781,0.537807 l -1.02672,0 c -0.35854,0 -0.53781,-0.179269 -0.53781,-0.537807 M 126.7448,61.801849 c -2e-5,-0.472606 -0.0978,-0.920778 -0.29335,-1.344519 -0.17928,-0.44001 -0.43189,-0.822994 -0.75782,-1.148953 -0.30966,-0.325929 -0.6845,-0.586684 -1.12451,-0.782266 -0.42374,-0.19555 -0.88006,-0.293333 -1.36896,-0.293349 l -4.52248,0 0,7.138175 4.52248,0 c 0.4889,9e-6 0.94522,-0.09777 1.36896,-0.29335 0.42372,-0.195557 0.79855,-0.456312 1.12451,-0.782266 0.32593,-0.325933 0.57854,-0.700769 0.75782,-1.124507 0.19555,-0.440013 0.29333,-0.896334 0.29335,-1.368965"
       id="path18425"
       style="font-size:24.4458046px;font-variant:normal;font-stretch:normal;line-height:87.99999952%;fill:#347091;font-family:Coco Gothic;-inkscape-font-specification:Coco Gothic" />
    <path
       d="m 140.38327,55.91041 c 1.28746,1.9e-5 2.49346,0.244477 3.61798,0.733374 1.14079,0.488934 2.13491,1.157118 2.98238,2.004556 0.84744,0.831173 1.51563,1.817152 2.00456,2.957943 0.4889,1.140816 0.73335,2.363105 0.73337,3.66687 -2e-5,1.287487 -0.24447,2.493479 -0.73337,3.61798 -0.48893,1.124511 -1.15712,2.110491 -2.00456,2.957942 -0.84747,0.831159 -1.84159,1.491195 -2.98238,1.98011 -1.12452,0.488916 -2.33866,0.733374 -3.64243,0.733374 -1.28749,0 -2.50163,-0.244458 -3.64242,-0.733374 -1.12452,-0.488915 -2.1105,-1.148951 -2.95795,-1.98011 -0.83116,-0.847451 -1.49119,-1.833431 -1.98011,-2.957942 -0.48891,-1.140798 -0.73337,-2.354939 -0.73337,-3.642425 0,-1.287469 0.24446,-2.493461 0.73337,-3.617979 0.48892,-1.140791 1.1571,-2.134919 2.00456,-2.982389 0.84745,-0.847438 1.83343,-1.515622 2.95794,-2.004556 1.1408,-0.488897 2.35494,-0.733355 3.64243,-0.733374 m -7.21151,9.313852 c -1e-5,0.994137 0.18741,1.931226 0.56225,2.811267 0.37483,0.880055 0.88819,1.654171 1.54008,2.322352 0.65189,0.651891 1.41785,1.165253 2.29791,1.540086 0.88004,0.374837 1.81713,0.562255 2.81127,0.562253 0.99412,2e-6 1.92305,-0.187416 2.78682,-0.562253 0.88003,-0.374833 1.646,-0.888195 2.2979,-1.540086 0.65188,-0.668181 1.16524,-1.442297 1.54009,-2.322352 0.37482,-0.880041 0.56224,-1.81713 0.56225,-2.811267 -1e-5,-0.994119 -0.18743,-1.923059 -0.56225,-2.786822 -0.37485,-0.880036 -0.88821,-1.646004 -1.54009,-2.297905 -0.6519,-0.651874 -1.41787,-1.165235 -2.2979,-1.540086 -0.86377,-0.37482 -1.7927,-0.562237 -2.78682,-0.562254 -0.99414,1.7e-5 -1.93123,0.187434 -2.81127,0.562254 -0.88006,0.374851 -1.64602,0.888212 -2.29791,1.540086 -0.65189,0.651901 -1.16525,1.417869 -1.54008,2.297905 -0.37484,0.863763 -0.56226,1.792703 -0.56225,2.786822"
       id="path18427"
       style="font-size:24.4458046px;font-variant:normal;font-stretch:normal;line-height:87.99999952%;fill:#347091;font-family:Coco Gothic;-inkscape-font-specification:Coco Gothic" />
    <path
       d="m 164.05941,61.899632 c -1e-5,-0.488903 -0.0978,-0.953373 -0.29335,-1.39341 -0.17928,-0.440011 -0.43189,-0.822995 -0.75782,-1.148953 -0.32595,-0.342226 -0.70894,-0.61113 -1.14895,-0.806712 -0.44004,-0.211847 -0.9208,-0.317779 -1.4423,-0.317795 l -5.50031,0 0,7.333741 5.52475,0 c 0.5215,9e-6 1.00227,-0.09777 1.4423,-0.29335 0.44002,-0.195557 0.81485,-0.456312 1.12451,-0.782265 0.32593,-0.342231 0.57854,-0.733364 0.75782,-1.173399 0.19555,-0.45631 0.29334,-0.928929 0.29335,-1.417857 m -11.24507,11.856216 0,-17.01428 c 0,-0.391115 0.17927,-0.586681 0.53781,-0.5867 l 7.06484,0 c 0.79855,1.9e-5 1.54822,0.154842 2.24901,0.464471 0.70077,0.293367 1.30376,0.700796 1.80899,1.22229 0.5215,0.521526 0.92893,1.132671 1.22229,1.833435 0.30963,0.700794 0.46445,1.450464 0.46447,2.249014 -2e-5,1.157113 -0.30966,2.200133 -0.92894,3.129063 -0.61931,0.928949 -1.42602,1.62158 -2.42014,2.077894 l 3.22685,6.624813 c 0.0326,0.130378 0.0489,0.203715 0.0489,0.220012 -1e-5,0.211864 -0.14669,0.317795 -0.44002,0.317795 l -1.34452,0 c -0.16299,0 -0.29336,-0.04074 -0.39113,-0.122229 -0.0815,-0.08149 -0.16299,-0.195566 -0.24446,-0.342241 l -2.95794,-6.209234 c -0.0489,6e-6 -0.13854,0.0082 -0.26891,0.02445 -0.13039,6e-6 -0.27706,6e-6 -0.44002,0 -0.14669,6e-6 -0.30151,6e-6 -0.46447,0 -0.14669,6e-6 -0.26077,6e-6 -0.34224,0 l -4.27802,0 0,6.111451 c 0,0.358538 -0.17927,0.537807 -0.53781,0.537807 l -1.02672,0 c -0.35854,0 -0.53781,-0.179269 -0.53781,-0.537807"
       id="path18429"
       style="font-size:24.4458046px;font-variant:normal;font-stretch:normal;line-height:87.99999952%;fill:#347091;font-family:Coco Gothic;-inkscape-font-specification:Coco Gothic" />
    <path
       d="m 168.33437,56.154868 12.56514,0 c 0.14666,1.9e-5 0.27704,0.04891 0.39113,0.146675 0.11407,0.0815 0.17926,0.211882 0.19557,0.391133 l 0,1.002278 c -1e-5,0.162989 -0.0489,0.301515 -0.14667,0.415579 -0.0978,0.114096 -0.24448,0.171136 -0.44003,0.17112 l -5.20695,0 0,15.474195 c -10e-6,0.146675 -0.0489,0.277052 -0.14668,0.391133 -0.0978,0.09778 -0.23632,0.146674 -0.41558,0.146674 l -1.00228,0 c -0.16297,0 -0.3015,-0.04889 -0.41557,-0.146674 -0.0978,-0.09778 -0.14669,-0.228161 -0.14668,-0.391133 l 0,-15.474195 -5.2314,0 c -0.37484,1.6e-5 -0.56226,-0.19555 -0.56226,-0.586699 l 0,-1.002278 c 0,-0.35852 0.18742,-0.537789 0.56226,-0.537808"
       id="path18431"
       style="font-size:24.4458046px;font-variant:normal;font-stretch:normal;line-height:87.99999952%;fill:#347091;font-family:Coco Gothic;-inkscape-font-specification:Coco Gothic" />
    <path
       d="m 184.72108,56.154868 11.75843,0 c 0.35853,1.9e-5 0.5378,0.187436 0.53781,0.562254 l 0,1.002278 c -1e-5,0.146691 -0.0489,0.277069 -0.14667,0.391133 -0.0978,0.114096 -0.23633,0.171136 -0.41558,0.17112 l -10.16946,0 0,5.402523 8.09157,0 c 0.14666,1.1e-5 0.26889,0.0489 0.36668,0.146675 0.11407,0.0815 0.17111,0.220023 0.17112,0.415579 l 0,1.002278 c -1e-5,0.146683 -0.0489,0.277061 -0.14667,0.391133 -0.0815,0.114089 -0.21188,0.171129 -0.39113,0.17112 l -8.09157,0 0,6.355909 10.26724,0 c 0.37482,3e-6 0.56224,0.195569 0.56226,0.5867 l 0,1.002278 c -2e-5,0.358538 -0.17929,0.537807 -0.53781,0.537807 l -11.85622,0 c -0.35854,0 -0.53781,-0.17112 -0.5378,-0.513362 l 0,-17.063171 c -1e-5,-0.374818 0.17926,-0.562235 0.5378,-0.562254"
       id="path18433"
       style="font-size:24.4458046px;font-variant:normal;font-stretch:normal;line-height:87.99999952%;fill:#347091;font-family:Coco Gothic;-inkscape-font-specification:Coco Gothic" />
    <path
       d="m 209.63327,72.215762 8.82494,0 c 0.14666,2e-6 0.26889,0.04889 0.36668,0.146675 0.11407,0.09779 0.17111,0.236311 0.17112,0.415579 l 0,0.977832 c -1e-5,0.146675 -0.0489,0.277052 -0.14667,0.391133 -0.0978,0.09778 -0.22817,0.146674 -0.39113,0.146674 l -10.38947,0 c -0.35854,0 -0.53781,-0.179269 -0.53781,-0.537807 l 0,-17.063172 c 0,-0.146657 0.0489,-0.268886 0.14668,-0.366687 0.0978,-0.114062 0.2363,-0.171102 0.41557,-0.171121 l 1.00228,0 c 0.35854,1.9e-5 0.53781,0.179288 0.53781,0.537808 l 0,15.523086"
       id="path18435"
       style="font-size:24.4458046px;font-variant:normal;font-stretch:normal;line-height:87.99999952%;fill:#347091;font-family:Coco Gothic;-inkscape-font-specification:Coco Gothic" />
    <path
       d="m 223.6705,56.692676 0,17.063172 c 0,0.358538 -0.17927,0.537807 -0.53781,0.537807 l -1.02672,0 c -0.35854,0 -0.53781,-0.179269 -0.53781,-0.537807 l 0,-17.063172 c 0,-0.35852 0.17927,-0.537789 0.53781,-0.537808 l 1.02672,0 c 0.35854,1.9e-5 0.53781,0.179288 0.53781,0.537808"
       id="path18437"
       style="font-size:24.4458046px;font-variant:normal;font-stretch:normal;line-height:87.99999952%;fill:#347091;font-family:Coco Gothic;-inkscape-font-specification:Coco Gothic" />
    <path
       d="m 228.53636,56.643784 c 0.21186,0.521528 0.47262,1.173416 0.78227,1.955665 0.30964,0.782281 0.64373,1.629734 1.00228,2.542364 0.37483,0.896358 0.75781,1.825298 1.14895,2.786821 0.39113,0.961545 0.76596,1.882336 1.12451,2.762376 0.37483,0.880056 0.70892,1.694915 1.00227,2.444581 0.30964,0.733378 0.56225,1.336374 0.75782,1.808989 0.19556,-0.472615 0.44002,-1.075611 0.73338,-1.808989 0.30964,-0.749666 0.64373,-1.564525 1.00228,-2.444581 0.35852,-0.896338 0.73336,-1.825277 1.1245,-2.786822 0.39112,-0.961523 0.76596,-1.890463 1.12451,-2.786821 0.37482,-0.91263 0.71706,-1.760083 1.02672,-2.542364 0.30964,-0.782249 0.57039,-1.434137 0.78227,-1.955664 0.14666,-0.309629 0.37482,-0.464452 0.68448,-0.464471 l 1.05117,0 c 0.35852,1.9e-5 0.53779,0.138545 0.53781,0.415579 -2e-5,0.03261 -0.008,0.08965 -0.0245,0.171121 -0.0163,0.06521 -0.0245,0.105949 -0.0244,0.122229 l -7.01595,16.940942 c -0.0326,0.08149 -0.0896,0.187418 -0.17112,0.317796 -0.0815,0.11408 -0.23632,0.17112 -0.46447,0.17112 l -0.70893,0 c -0.17927,0 -0.32595,-0.04889 -0.44002,-0.146674 -0.0978,-0.114081 -0.16298,-0.220012 -0.19557,-0.317796 l -6.94261,-16.672039 c -0.0326,-0.04887 -0.0652,-0.13036 -0.0978,-0.244458 -0.0326,-0.114063 -0.057,-0.236291 -0.0733,-0.366687 0,-0.260737 0.17927,-0.391114 0.53781,-0.391133 l 1.07562,0 c 0.32594,1.9e-5 0.54595,0.16299 0.66003,0.488916"
       id="path18439"
       style="font-size:24.4458046px;font-variant:normal;font-stretch:normal;line-height:87.99999952%;fill:#347091;font-family:Coco Gothic;-inkscape-font-specification:Coco Gothic" />
    <path
       d="m 256.44736,61.899632 c -2e-5,-0.488903 -0.0978,-0.953373 -0.29335,-1.39341 -0.17928,-0.440011 -0.43189,-0.822995 -0.75782,-1.148953 -0.32596,-0.342226 -0.70894,-0.61113 -1.14895,-0.806712 -0.44004,-0.211847 -0.92081,-0.317779 -1.44231,-0.317795 l -5.5003,0 0,7.333741 5.52475,0 c 0.5215,9e-6 1.00227,-0.09777 1.4423,-0.29335 0.44001,-0.195557 0.81485,-0.456312 1.12451,-0.782265 0.32593,-0.342231 0.57854,-0.733364 0.75782,-1.173399 0.19555,-0.45631 0.29333,-0.928929 0.29335,-1.417857 m -11.24507,11.856216 0,-17.01428 c 0,-0.391115 0.17926,-0.586681 0.53781,-0.5867 l 7.06483,0 c 0.79856,1.9e-5 1.54823,0.154842 2.24902,0.464471 0.70076,0.293367 1.30376,0.700796 1.80899,1.22229 0.52149,0.521526 0.92892,1.132671 1.22229,1.833435 0.30963,0.700794 0.46445,1.450464 0.46447,2.249014 -2e-5,1.157113 -0.30966,2.200133 -0.92894,3.129063 -0.61931,0.928949 -1.42602,1.62158 -2.42014,2.077894 l 3.22685,6.624813 c 0.0326,0.130378 0.0489,0.203715 0.0489,0.220012 -2e-5,0.211864 -0.14669,0.317795 -0.44002,0.317795 l -1.34452,0 c -0.16299,0 -0.29337,-0.04074 -0.39114,-0.122229 -0.0815,-0.08149 -0.16298,-0.195566 -0.24446,-0.342241 l -2.95794,-6.209234 c -0.0489,6e-6 -0.13853,0.0082 -0.2689,0.02445 -0.13039,6e-6 -0.27706,6e-6 -0.44003,0 -0.14668,6e-6 -0.3015,6e-6 -0.46447,0 -0.14668,6e-6 -0.26076,6e-6 -0.34224,0 l -4.27801,0 0,6.111451 c -1e-5,0.358538 -0.17928,0.537807 -0.53781,0.537807 l -1.02672,0 c -0.35855,0 -0.53781,-0.179269 -0.53781,-0.537807"
       id="path18441"
       style="font-size:24.4458046px;font-variant:normal;font-stretch:normal;line-height:87.99999952%;fill:#347091;font-family:Coco Gothic;-inkscape-font-specification:Coco Gothic" />
    <path
       d="m 262.16463,56.154868 11.75843,0 c 0.35852,1.9e-5 0.53779,0.187436 0.53781,0.562254 l 0,1.002278 c -2e-5,0.146691 -0.0489,0.277069 -0.14668,0.391133 -0.0978,0.114096 -0.23632,0.171136 -0.41558,0.17112 l -10.16945,0 0,5.402523 8.09156,0 c 0.14666,1.1e-5 0.26889,0.0489 0.36669,0.146675 0.11406,0.0815 0.1711,0.220023 0.17112,0.415579 l 0,1.002278 c -2e-5,0.146683 -0.0489,0.277061 -0.14668,0.391133 -0.0815,0.114089 -0.21187,0.171129 -0.39113,0.17112 l -8.09156,0 0,6.355909 10.26723,0 c 0.37483,3e-6 0.56224,0.195569 0.56226,0.5867 l 0,1.002278 c -2e-5,0.358538 -0.17929,0.537807 -0.53781,0.537807 l -11.85621,0 c -0.35855,0 -0.53781,-0.17112 -0.53781,-0.513362 l 0,-17.063171 c 0,-0.374818 0.17926,-0.562235 0.53781,-0.562254"
       id="path18443"
       style="font-size:24.4458046px;font-variant:normal;font-stretch:normal;line-height:87.99999952%;fill:#347091;font-family:Coco Gothic;-inkscape-font-specification:Coco Gothic" />
  </g>
</svg>
